PathFileType	4	(X/Y/Z)	C:\Users\WrightLab\Desktop\Jo\P2_Trial25.trc
DataRate	CameraRate	NumFrames	NumMarkers	Units	OrigDataRate	OrigDataStartFrame	OrigNumFrames
100.00	100.00	       10	19	mm	100.00	133	       529
Frame#	Time	Headset_Front			Headset_Back			Headset_Left			Headset_Right			Left_Shoulder			Right_Shoulder			Sternum			C7			Left Elbow			Right Elbow			Left Wrist			Right Wrist			Left ASIS			Right ASIS			S2			Left Knee			Right Knee			Left Ankle			Right Ankle			
		X1	Y1	Z1	X2	Y2	Z2	X3	Y3	Z3	X4	Y4	Z4	X5	Y5	Z5	X6	Y6	Z6	X7	Y7	Z7	X8	Y8	Z8	X9	Y9	Z9	X10	Y10	Z10	X11	Y11	Z11	X12	Y12	Z12	X13	Y13	Z13	X14	Y14	Z14	X15	Y15	Z15	X16	Y16	Z16	X17	Y17	Z17	X18	Y18	Z18	X19	Y19	Z19	

133	1.320	-689.10217	1382.56824	-487.37033	-595.65125	1608.54443	-671.80841	-526.19574	1485.82007	-570.54572	-756.76270	1479.45056	-575.98773	-496.07874	1361.30090	-656.82550	-800.65399	1370.59229	-753.02039	-670.80084	1239.66809	-663.73950	-627.19080	1378.56433	-819.60016	-305.58911	1117.46313	-652.59894	-890.67108	1051.44946	-819.35541	-446.66855	956.78473	-708.59277	-897.62549	829.14368	-693.33173	-669.34937	934.99298	-641.35486	-779.09119	934.78748	-715.33521				-651.89087	431.33014	-562.10938				-678.00592	61.86231	-511.84778	-551.27618	1056.16833	-1253.33997	
134	1.330	-691.67786	1383.30518	-476.97327	-599.03345	1608.92249	-661.09198	-529.81616	1487.20935	-559.72552	-760.00171	1480.80066	-563.36255	-500.05222	1361.30457	-645.68085	-804.73438	1371.74231	-741.31189	-674.54749	1240.09412	-651.15485	-631.64722	1379.19897	-807.76208	-309.07217	1117.96619	-644.68958	-894.75323	1053.26978	-807.09790	-449.01965	962.93909	-677.49182	-903.52130	828.26270	-685.40533	-674.60333	935.04785	-629.85199	-783.56055	936.21057	-703.80475				-658.32318	431.46054	-550.37048	-735.38129	499.46500	-1019.52454	-677.88855	60.13890	-510.83887	-556.04779	1057.08752	-1242.70020	
135	1.340	-695.42023	1384.96643	-462.59448	-602.53430	1609.06995	-650.48584	-532.99622	1487.32507	-548.40509	-763.23907	1481.47986	-551.27417	-503.78131	1362.03625	-635.81219	-808.71405	1373.40491	-729.81000	-678.99554	1241.88562	-637.57391	-635.71222	1379.89099	-796.41669	-313.47842	1118.08484	-633.97980	-898.76074	1054.95105	-794.61700	-454.55347	964.17969	-669.37756	-910.98145	827.70996	-678.00159	-679.06836	937.05957	-617.52332	-787.74207	938.12170	-691.19672				-665.57996	429.83109	-537.00098	-741.76654	501.22128	-1006.95715	-677.26221	58.69466	-509.05167	-560.61957	1057.38953	-1232.51038	
136	1.350	-699.18549	1386.50610	-448.39548	-605.83807	1609.92627	-640.15002	-536.33282	1487.79370	-538.48413	-766.86945	1482.89392	-539.76306	-507.90872	1362.47620	-624.33240	-812.94672	1374.92969	-719.06122	-683.42059	1243.15247	-625.41565	-639.66547	1380.77966	-785.57861	-316.46603	1119.86511	-623.39551	-902.50165	1056.38330	-782.76477	-459.89462	962.11664	-662.77478	-917.64484	827.99695	-671.88916	-683.77368	938.43005	-605.22101	-792.67285	939.98004	-679.96448				-671.52625	428.85651	-525.99280	-748.45752	501.84036	-992.80664	-677.54053	57.27771	-506.75830	-564.59967	1059.06372	-1224.89893	
137	1.360	-701.45477	1388.56921	-438.85898	-609.12866	1610.85034	-629.28735	-539.53284	1489.07446	-528.74951	-769.91541	1484.44958	-528.11481	-511.34641	1363.11194	-613.77515	-817.10443	1376.59387	-708.32092	-688.56885	1245.08337	-614.11499	-643.49591	1381.40930	-774.36420	-321.20090	1119.41492	-614.36560	-905.61780	1057.72510	-771.86914				-923.97369	828.27893	-666.20203	-688.67310	939.40253	-593.88617	-797.29553	939.95135	-678.32172	-592.58795	889.80170	-866.11670	-676.55884	428.66562	-514.60577	-755.34869	502.10934	-978.00635	-677.16943	57.10100	-505.91620				
138	1.370	-704.30426	1389.77075	-427.20447	-612.41205	1612.00574	-618.66193	-542.90039	1489.75684	-518.10272	-773.32886	1485.87720	-516.46826	-515.43726	1363.74927	-603.37689	-821.16479	1378.58813	-697.98309	-692.91064	1247.29590	-602.52753	-647.28088	1382.86035	-764.07428	-324.90543	1120.90479	-606.27753	-909.93030	1060.42249	-762.87946	-468.65149	965.88727	-639.40924	-930.51648	828.35529	-660.72913	-694.08057	938.67242	-586.97607	-801.53729	942.61841	-658.54242	-597.76355	890.95050	-853.40887	-679.81335	429.61374	-506.79547	-762.43750	502.01114	-962.74615	-676.75116	56.46141	-505.43765				
139	1.380	-707.78625	1391.30420	-410.83560	-615.66461	1613.35461	-608.26996	-545.70386	1491.03137	-508.40988	-775.68335	1487.60510	-505.27505	-519.06207	1365.40137	-592.71429	-825.22852	1380.40710	-687.59705	-697.99390	1249.05249	-591.59784	-651.06030	1384.18506	-753.14539	-328.40140	1122.99036	-595.37408	-911.74359	1061.34900	-752.59509	-472.24237	968.76898	-627.11694	-935.78772	828.27814	-654.56885	-697.08282	941.13251	-571.88916	-805.81317	943.88824	-648.85791	-602.52118	891.42523	-842.74292	-681.14276	430.05328	-499.17844	-769.84808	501.18527	-947.22882	-677.80927	55.39679	-502.26440				
140	1.390	-710.34113	1393.45508	-399.84595	-618.81372	1614.94202	-598.10590	-548.82465	1492.08813	-499.32361	-778.42963	1489.88904	-493.62433	-523.08728	1366.58276	-582.93024	-829.20825	1382.63806	-677.91052	-701.75854	1251.05017	-580.86053	-654.95972	1385.94287	-742.88611	-333.26901	1123.22363	-584.46265	-916.60010	1063.97815	-743.48651	-478.40521	966.31531	-625.95215	-942.65540	829.36450	-649.83911	-701.94952	942.12335	-564.82184	-809.35669	944.61902	-645.60956	-606.93933	892.76837	-832.68152	-681.26031	429.98071	-492.01434	-777.29303	499.97177	-930.74066	-674.36700	58.28793	-503.89160				
141	1.400	-712.89948	1394.20117	-389.66205	-622.14673	1616.34705	-587.61780	-552.00885	1493.28162	-489.27490	-781.51428	1491.98047	-482.43115	-527.47577	1367.92175	-571.02435	-833.01825	1385.13562	-667.95428	-706.62036	1253.24927	-570.72113	-658.87457	1387.94714	-732.88635	-336.96811	1125.51038	-575.22290	-920.53693	1066.60583	-734.09106	-481.70108	971.89569	-607.13116	-949.58875	829.85980	-645.27173	-705.11560	943.52106	-553.88135	-814.27185	947.25885	-629.71277	-610.84918	894.87152	-822.70392	-682.30078	429.62677	-484.96124	-784.40686	499.29144	-914.24902	-661.11737	68.58273	-522.09100				
142	1.410	-715.67566	1395.58423	-379.07141	-625.37231	1618.33752	-577.67102	-555.32159	1494.51355	-478.98459	-784.47382	1494.22131	-472.09247	-531.48914	1369.74341	-562.78210	-836.96906	1387.57227	-658.40778	-711.13770	1255.05078	-559.58728	-662.66077	1390.54211	-723.81567	-340.45551	1127.88843	-566.38116	-924.50195	1069.37231	-725.15723	-485.28372	974.85370	-594.91553	-955.12671	831.03705	-640.60803	-710.01837	944.49414	-545.70428	-818.57599	949.40027	-620.55725	-615.83087	896.37561	-812.80646	-681.33112	428.93060	-479.20636	-792.01031	497.86279	-895.73517	-660.64288	69.11667	-520.71808				
